<?xml version="1.0" encoding="UTF-8" standalone="no"?><svg xmlns="http://www.w3.org/2000/svg" xmlns:xlink="http://www.w3.org/1999/xlink" contentStyleType="text/css" height="484px" preserveAspectRatio="none" style="width:755px;height:484px;background:#808080;" version="1.1" viewBox="0 0 755 484" width="755px" zoomAndPan="magnify"><defs/><g><ellipse cx="323.625" cy="20" fill="#008000" rx="10" ry="10" style="stroke:#222222;stroke-width:1.0;"/><rect fill="#2E2E2E" height="35.0938" rx="12.5" ry="12.5" style="stroke:#181818;stroke-width:0.5;" width="114" x="266.625" y="50"/><text fill="#FFFFFF" font-family="sans-serif" font-size="12" lengthAdjust="spacing" textLength="94" x="276.625" y="72.457">Application starts</text><rect fill="#2E2E2E" height="50.1875" rx="12.5" ry="12.5" style="stroke:#181818;stroke-width:0.5;" width="211" x="218.125" y="105.0938"/><text fill="#FFFFFF" font-family="sans-serif" font-size="12" lengthAdjust="spacing" textLength="191" x="228.125" y="127.5508">Console takes input for side lenths</text><text fill="#FFFFFF" font-family="sans-serif" font-size="12" lengthAdjust="spacing" textLength="152" x="228.125" y="142.6445">of the triangle and rectangle</text><polygon fill="#2E2E2E" points="254.125,175.2813,393.125,175.2813,405.125,187.2813,393.125,199.2813,254.125,199.2813,242.125,187.2813,254.125,175.2813" style="stroke:#181818;stroke-width:0.5;"/><text fill="#FFFFFF" font-family="sans-serif" font-size="11" lengthAdjust="spacing" textLength="139" x="254.125" y="191.7822">Lengths are of correct type?</text><text fill="#FFFFFF" font-family="sans-serif" font-size="11" lengthAdjust="spacing" textLength="43" x="199.125" y="184.8643">Incorrect</text><text fill="#FFFFFF" font-family="sans-serif" font-size="11" lengthAdjust="spacing" textLength="36" x="405.125" y="184.8643">Correct</text><rect fill="#2E2E2E" height="50.1875" rx="12.5" ry="12.5" style="stroke:#181818;stroke-width:0.5;" width="222" x="11" y="209.2813"/><text fill="#FFFFFF" font-family="sans-serif" font-size="12" lengthAdjust="spacing" textLength="202" x="21" y="231.7383">Application throws an error message</text><text fill="#FFFFFF" font-family="sans-serif" font-size="12" lengthAdjust="spacing" textLength="152" x="21" y="246.832">caught by the try-catch block</text><rect fill="#2E2E2E" height="35.0938" rx="12.5" ry="12.5" style="stroke:#181818;stroke-width:0.5;" width="101" x="71.5" y="294.4688"/><text fill="#FFFFFF" font-family="sans-serif" font-size="12" lengthAdjust="spacing" textLength="81" x="81.5" y="316.9258">Error is logged</text><ellipse cx="122" cy="374.5625" fill="none" rx="10" ry="10" style="stroke:#800000;stroke-width:1.5;"/><line style="stroke:#800000;stroke-width:2.5;" x1="115.8128" x2="128.1872" y1="368.3753" y2="380.7497"/><line style="stroke:#800000;stroke-width:2.5;" x1="128.1872" x2="115.8128" y1="368.3753" y2="380.7497"/><rect fill="#2E2E2E" height="35.0938" rx="12.5" ry="12.5" style="stroke:#181818;stroke-width:0.5;" width="199" x="425.75" y="209.2813"/><text fill="#FFFFFF" font-family="sans-serif" font-size="12" lengthAdjust="spacing" textLength="179" x="435.75" y="231.7383">Application continues the checks</text><polygon fill="#2E2E2E" points="473.25,279.375,577.25,279.375,589.25,291.375,577.25,303.375,473.25,303.375,461.25,291.375,473.25,279.375" style="stroke:#181818;stroke-width:0.5;"/><text fill="#FFFFFF" font-family="sans-serif" font-size="11" lengthAdjust="spacing" textLength="104" x="473.25" y="295.876">Lengths are positive?</text><text fill="#FFFFFF" font-family="sans-serif" font-size="11" lengthAdjust="spacing" textLength="37" x="424.25" y="288.958">Positive</text><text fill="#FFFFFF" font-family="sans-serif" font-size="11" lengthAdjust="spacing" textLength="59" x="589.25" y="288.958">Non Positive</text><rect fill="#2E2E2E" height="50.1875" rx="12.5" ry="12.5" style="stroke:#181818;stroke-width:0.5;" width="274" x="263" y="313.375"/><text fill="#FFFFFF" font-family="sans-serif" font-size="12" lengthAdjust="spacing" textLength="254" x="273" y="335.832">Application calculates areas of the two shapes</text><text fill="#FFFFFF" font-family="sans-serif" font-size="12" lengthAdjust="spacing" textLength="116" x="273" y="350.9258">and prints the results</text><rect fill="#2E2E2E" height="35.0938" rx="12.5" ry="12.5" style="stroke:#181818;stroke-width:0.5;" width="125" x="337.5" y="398.5625"/><text fill="#FFFFFF" font-family="sans-serif" font-size="12" lengthAdjust="spacing" textLength="105" x="347.5" y="421.0195">Results are logged</text><ellipse cx="400" cy="463.6563" fill="none" rx="10" ry="10" style="stroke:#800000;stroke-width:1.5;"/><line style="stroke:#800000;stroke-width:2.5;" x1="393.8128" x2="406.1872" y1="457.4691" y2="469.8434"/><line style="stroke:#800000;stroke-width:2.5;" x1="406.1872" x2="393.8128" y1="457.4691" y2="469.8434"/><rect fill="#2E2E2E" height="50.1875" rx="12.5" ry="12.5" style="stroke:#181818;stroke-width:0.5;" width="187" x="557" y="313.375"/><text fill="#FFFFFF" font-family="sans-serif" font-size="12" lengthAdjust="spacing" textLength="167" x="567" y="335.832">Application prints an message</text><text fill="#FFFFFF" font-family="sans-serif" font-size="12" lengthAdjust="spacing" textLength="164" x="567" y="350.9258">telling the user about the error</text><rect fill="#2E2E2E" height="35.0938" rx="12.5" ry="12.5" style="stroke:#181818;stroke-width:0.5;" width="101" x="600" y="398.5625"/><text fill="#FFFFFF" font-family="sans-serif" font-size="12" lengthAdjust="spacing" textLength="81" x="610" y="421.0195">Error is logged</text><ellipse cx="650.5" cy="463.6563" fill="none" rx="10" ry="10" style="stroke:#800000;stroke-width:1.5;"/><line style="stroke:#800000;stroke-width:2.5;" x1="644.3128" x2="656.6872" y1="457.4691" y2="469.8434"/><line style="stroke:#800000;stroke-width:2.5;" x1="656.6872" x2="644.3128" y1="457.4691" y2="469.8434"/><line style="stroke:#181818;stroke-width:2.0;" x1="323.625" x2="323.625" y1="30" y2="50"/><polygon fill="#181818" points="319.625,40,323.625,50,327.625,40,323.625,44" style="stroke:#181818;stroke-width:1.0;"/><line style="stroke:#181818;stroke-width:2.0;" x1="323.625" x2="323.625" y1="85.0938" y2="105.0938"/><polygon fill="#181818" points="319.625,95.0938,323.625,105.0938,327.625,95.0938,323.625,99.0938" style="stroke:#181818;stroke-width:1.0;"/><line style="stroke:#181818;stroke-width:2.0;" x1="122" x2="122" y1="259.4688" y2="294.4688"/><polygon fill="#181818" points="118,284.4688,122,294.4688,126,284.4688,122,288.4688" style="stroke:#181818;stroke-width:1.0;"/><line style="stroke:#181818;stroke-width:2.0;" x1="122" x2="122" y1="329.5625" y2="364.5625"/><polygon fill="#181818" points="118,354.5625,122,364.5625,126,354.5625,122,358.5625" style="stroke:#181818;stroke-width:1.0;"/><line style="stroke:#181818;stroke-width:2.0;" x1="400" x2="400" y1="363.5625" y2="398.5625"/><polygon fill="#181818" points="396,388.5625,400,398.5625,404,388.5625,400,392.5625" style="stroke:#181818;stroke-width:1.0;"/><line style="stroke:#181818;stroke-width:2.0;" x1="400" x2="400" y1="433.6563" y2="453.6563"/><polygon fill="#181818" points="396,443.6563,400,453.6563,404,443.6563,400,447.6563" style="stroke:#181818;stroke-width:1.0;"/><line style="stroke:#181818;stroke-width:2.0;" x1="650.5" x2="650.5" y1="363.5625" y2="398.5625"/><polygon fill="#181818" points="646.5,388.5625,650.5,398.5625,654.5,388.5625,650.5,392.5625" style="stroke:#181818;stroke-width:1.0;"/><line style="stroke:#181818;stroke-width:2.0;" x1="650.5" x2="650.5" y1="433.6563" y2="453.6563"/><polygon fill="#181818" points="646.5,443.6563,650.5,453.6563,654.5,443.6563,650.5,447.6563" style="stroke:#181818;stroke-width:1.0;"/><line style="stroke:#181818;stroke-width:2.0;" x1="461.25" x2="400" y1="291.375" y2="291.375"/><line style="stroke:#181818;stroke-width:2.0;" x1="400" x2="400" y1="291.375" y2="313.375"/><polygon fill="#181818" points="396,303.375,400,313.375,404,303.375,400,307.375" style="stroke:#181818;stroke-width:1.0;"/><line style="stroke:#181818;stroke-width:2.0;" x1="589.25" x2="650.5" y1="291.375" y2="291.375"/><line style="stroke:#181818;stroke-width:2.0;" x1="650.5" x2="650.5" y1="291.375" y2="313.375"/><polygon fill="#181818" points="646.5,303.375,650.5,313.375,654.5,303.375,650.5,307.375" style="stroke:#181818;stroke-width:1.0;"/><line style="stroke:#181818;stroke-width:2.0;" x1="525.25" x2="525.25" y1="244.375" y2="279.375"/><polygon fill="#181818" points="521.25,269.375,525.25,279.375,529.25,269.375,525.25,273.375" style="stroke:#181818;stroke-width:1.0;"/><line style="stroke:#181818;stroke-width:2.0;" x1="242.125" x2="122" y1="187.2813" y2="187.2813"/><line style="stroke:#181818;stroke-width:2.0;" x1="122" x2="122" y1="187.2813" y2="209.2813"/><polygon fill="#181818" points="118,199.2813,122,209.2813,126,199.2813,122,203.2813" style="stroke:#181818;stroke-width:1.0;"/><line style="stroke:#181818;stroke-width:2.0;" x1="405.125" x2="525.25" y1="187.2813" y2="187.2813"/><line style="stroke:#181818;stroke-width:2.0;" x1="525.25" x2="525.25" y1="187.2813" y2="209.2813"/><polygon fill="#181818" points="521.25,199.2813,525.25,209.2813,529.25,199.2813,525.25,203.2813" style="stroke:#181818;stroke-width:1.0;"/><line style="stroke:#181818;stroke-width:2.0;" x1="323.625" x2="323.625" y1="155.2813" y2="175.2813"/><polygon fill="#181818" points="319.625,165.2813,323.625,175.2813,327.625,165.2813,323.625,169.2813" style="stroke:#181818;stroke-width:1.0;"/><!--MD5=[e4ef46514d4cdfce03cff643c706d109]
@startuml

skinparam BackgroundColor Grey
skinparam ActivityBackgroundColor 2e2e2e
skinparam ActivityFontColor White
skinparam ActivityStartColor Green
skinparam ActivityEndColor Maroon
skinparam ArrowThickness 2


start

:Application starts;

:Console takes input for side lenths 
of the triangle and rectangle;

if(Lengths are of correct type?) then (<color:white>Incorrect)
    :Application throws an error message
    caught by the try-catch block;
    :Error is logged;
    end
else (<color:white>Correct)
    :Application continues the checks;
    if(Lengths are positive?) then (<color:white>Positive)
        :Application calculates areas of the two shapes
        and prints the results;
        :Results are logged;
        end
    else (<color:white>Non Positive)
        :Application prints an message 
        telling the user about the error;
        :Error is logged;
        end



@enduml

PlantUML version 1.2022.7(Mon Aug 22 22:31:30 IST 2022)
(GPL source distribution)
Java Runtime: Java(TM) SE Runtime Environment
JVM: Java HotSpot(TM) 64-Bit Server VM
Default Encoding: Cp1252
Language: en
Country: US
--></g></svg>