<?xml version="1.0" encoding="UTF-8" standalone="no"?><svg xmlns="http://www.w3.org/2000/svg" xmlns:xlink="http://www.w3.org/1999/xlink" contentStyleType="text/css" height="167px" preserveAspectRatio="none" style="width:477px;height:167px;background:#808080;" version="1.1" viewBox="0 0 477 167" width="477px" zoomAndPan="magnify"><defs/><g><!--MD5=[426e75666daf533f17226ff4c87e20fd]
class Shape--><g id="elem_Shape"><rect codeLine="10" fill="#2E2E2E" height="65.6094" id="Shape" rx="2.5" ry="2.5" style="stroke:#1B1B1B;stroke-width:1.5;" width="149" x="161" y="51"/><ellipse cx="210.75" cy="67" fill="#A9DCDF" rx="11" ry="11" style="stroke:#181818;stroke-width:1.0;"/><path d="M212.9375,68.7656 L208.7969,68.7656 L208.375,69.7969 L208.7969,69.7969 Q209.4063,69.7969 209.6719,70.0313 Q209.9375,70.2656 209.9375,70.6563 Q209.9375,71.0313 209.6719,71.2656 Q209.4063,71.5 208.7969,71.5 L206.5,71.5 Q205.8906,71.5 205.6406,71.2656 Q205.375,71.0313 205.375,70.6406 Q205.375,70.2656 205.6563,70.0313 Q205.9219,69.7813 206.5469,69.7969 L209.2188,63.1406 L208.1094,63.1406 Q207.5,63.1406 207.2344,62.9063 Q206.9688,62.6719 206.9688,62.2813 Q206.9688,61.9063 207.2344,61.6719 Q207.5,61.4375 208.1094,61.4375 L211.7813,61.4375 L215.1719,69.7969 Q215.7656,69.7969 215.9531,69.9375 Q216.3438,70.2031 216.3438,70.6563 Q216.3438,71.0313 216.0781,71.2656 Q215.8281,71.5 215.2188,71.5 L212.9219,71.5 Q212.3125,71.5 212.0469,71.2656 Q211.7813,71.0313 211.7813,70.6406 Q211.7813,70.2656 212.0469,70.0313 Q212.3125,69.7969 212.9219,69.7969 L213.3438,69.7969 L212.9375,68.7656 Z M212.2188,67.0625 L210.8594,63.6875 L209.4844,67.0625 L212.2188,67.0625 Z " fill="#000000"/><text fill="#FFFFFF" font-family="sans-serif" font-size="14" font-style="italic" lengthAdjust="spacing" textLength="41" x="231.25" y="72.7285">Shape</text><line style="stroke:#1B1B1B;stroke-width:1.5;" x1="162" x2="309" y1="83" y2="83"/><line style="stroke:#1B1B1B;stroke-width:1.5;" x1="162" x2="309" y1="91" y2="91"/><ellipse cx="172" cy="105.3047" fill="#84BE84" rx="3" ry="3" style="stroke:#038048;stroke-width:1.0;"/><text fill="#FFFFFF" font-family="sans-serif" font-size="14" lengthAdjust="spacing" textLength="123" x="181" y="109.5332">CalcArea() : double</text></g><!--MD5=[b5313cd49da22b0744b541f414f8445e]
class Rectangle--><g id="elem_Rectangle"><rect codeLine="15" fill="#2E2E2E" height="118.4375" id="Rectangle" rx="2.5" ry="2.5" style="stroke:#1B1B1B;stroke-width:1.5;" width="125" x="345" y="25"/><ellipse cx="373.05" cy="41" fill="#ADD1B2" rx="11" ry="11" style="stroke:#181818;stroke-width:1.0;"/><path d="M375.8156,36.875 Q375.9719,36.6563 376.1594,36.5469 Q376.3469,36.4375 376.5656,36.4375 Q376.9406,36.4375 377.175,36.7031 Q377.4094,36.9531 377.4094,37.5625 L377.4094,39.0156 Q377.4094,39.625 377.175,39.8906 Q376.9406,40.1563 376.5656,40.1563 Q376.2219,40.1563 376.0188,39.9531 Q375.8156,39.7656 375.7063,39.25 Q375.6594,38.8906 375.4719,38.7031 Q375.1438,38.3281 374.5344,38.1094 Q373.925,37.8906 373.3,37.8906 Q372.5344,37.8906 371.8938,38.2188 Q371.2688,38.5469 370.7688,39.2969 Q370.2844,40.0469 370.2844,41.0781 L370.2844,42.1719 Q370.2844,43.4063 371.175,44.2344 Q372.0656,45.0469 373.6594,45.0469 Q374.5969,45.0469 375.2531,44.7969 Q375.6438,44.6406 376.0656,44.2031 Q376.3313,43.9375 376.4719,43.8594 Q376.6281,43.7813 376.8313,43.7813 Q377.1594,43.7813 377.4094,44.0469 Q377.675,44.2969 377.675,44.6406 Q377.675,44.9844 377.3313,45.3906 Q376.8313,45.9688 376.0344,46.2969 Q374.9563,46.75 373.6594,46.75 Q372.1438,46.75 370.9406,46.125 Q369.9563,45.625 369.2688,44.5625 Q368.5813,43.4844 368.5813,42.2031 L368.5813,41.0469 Q368.5813,39.7188 369.1906,38.5781 Q369.8156,37.4219 370.9094,36.8125 Q372.0031,36.1875 373.2375,36.1875 Q373.9719,36.1875 374.6125,36.3594 Q375.2688,36.5156 375.8156,36.875 Z " fill="#000000"/><text fill="#FFFFFF" font-family="sans-serif" font-size="14" lengthAdjust="spacing" textLength="64" x="389.95" y="46.7285">Rectangle</text><line style="stroke:#1B1B1B;stroke-width:1.5;" x1="346" x2="469" y1="57" y2="57"/><ellipse cx="356" cy="71.3047" fill="none" rx="3" ry="3" style="stroke:#038048;stroke-width:1.0;"/><text fill="#FFFFFF" font-family="sans-serif" font-size="14" lengthAdjust="spacing" textLength="99" x="365" y="75.5332">Length : double</text><ellipse cx="356" cy="88.9141" fill="none" rx="3" ry="3" style="stroke:#038048;stroke-width:1.0;"/><text fill="#FFFFFF" font-family="sans-serif" font-size="14" lengthAdjust="spacing" textLength="91" x="365" y="93.1426">Width : double</text><rect fill="none" height="6" style="stroke:#C82930;stroke-width:1.0;" width="6" x="353" y="103.5234"/><text fill="#FFFFFF" font-family="sans-serif" font-size="14" lengthAdjust="spacing" textLength="84" x="365" y="110.752">area : double</text><line style="stroke:#1B1B1B;stroke-width:1.5;" x1="346" x2="469" y1="117.8281" y2="117.8281"/><ellipse cx="356" cy="132.1328" fill="#84BE84" rx="3" ry="3" style="stroke:#038048;stroke-width:1.0;"/><text fill="#FFFFFF" font-family="sans-serif" font-size="14" lengthAdjust="spacing" textLength="74" x="365" y="136.3613">Rectangle()</text></g><!--MD5=[40b067e448d061f8c1f714bff454de58]
class Triangle--><g id="elem_Triangle"><rect codeLine="24" fill="#2E2E2E" height="153.6563" id="Triangle" rx="2.5" ry="2.5" style="stroke:#1B1B1B;stroke-width:1.5;" width="119" x="7" y="7"/><ellipse cx="37.75" cy="23" fill="#ADD1B2" rx="11" ry="11" style="stroke:#181818;stroke-width:1.0;"/><path d="M40.5156,18.875 Q40.6719,18.6563 40.8594,18.5469 Q41.0469,18.4375 41.2656,18.4375 Q41.6406,18.4375 41.875,18.7031 Q42.1094,18.9531 42.1094,19.5625 L42.1094,21.0156 Q42.1094,21.625 41.875,21.8906 Q41.6406,22.1563 41.2656,22.1563 Q40.9219,22.1563 40.7188,21.9531 Q40.5156,21.7656 40.4063,21.25 Q40.3594,20.8906 40.1719,20.7031 Q39.8438,20.3281 39.2344,20.1094 Q38.625,19.8906 38,19.8906 Q37.2344,19.8906 36.5938,20.2188 Q35.9688,20.5469 35.4688,21.2969 Q34.9844,22.0469 34.9844,23.0781 L34.9844,24.1719 Q34.9844,25.4063 35.875,26.2344 Q36.7656,27.0469 38.3594,27.0469 Q39.2969,27.0469 39.9531,26.7969 Q40.3438,26.6406 40.7656,26.2031 Q41.0313,25.9375 41.1719,25.8594 Q41.3281,25.7813 41.5313,25.7813 Q41.8594,25.7813 42.1094,26.0469 Q42.375,26.2969 42.375,26.6406 Q42.375,26.9844 42.0313,27.3906 Q41.5313,27.9688 40.7344,28.2969 Q39.6563,28.75 38.3594,28.75 Q36.8438,28.75 35.6406,28.125 Q34.6563,27.625 33.9688,26.5625 Q33.2813,25.4844 33.2813,24.2031 L33.2813,23.0469 Q33.2813,21.7188 33.8906,20.5781 Q34.5156,19.4219 35.6094,18.8125 Q36.7031,18.1875 37.9375,18.1875 Q38.6719,18.1875 39.3125,18.3594 Q39.9688,18.5156 40.5156,18.875 Z " fill="#000000"/><text fill="#FFFFFF" font-family="sans-serif" font-size="14" lengthAdjust="spacing" textLength="52" x="55.25" y="28.7285">Triangle</text><line style="stroke:#1B1B1B;stroke-width:1.5;" x1="8" x2="125" y1="39" y2="39"/><ellipse cx="18" cy="53.3047" fill="none" rx="3" ry="3" style="stroke:#038048;stroke-width:1.0;"/><text fill="#FFFFFF" font-family="sans-serif" font-size="14" lengthAdjust="spacing" textLength="90" x="27" y="57.5332">sideA : double</text><ellipse cx="18" cy="70.9141" fill="none" rx="3" ry="3" style="stroke:#038048;stroke-width:1.0;"/><text fill="#FFFFFF" font-family="sans-serif" font-size="14" lengthAdjust="spacing" textLength="90" x="27" y="75.1426">sideB : double</text><ellipse cx="18" cy="88.5234" fill="none" rx="3" ry="3" style="stroke:#038048;stroke-width:1.0;"/><text fill="#FFFFFF" font-family="sans-serif" font-size="14" lengthAdjust="spacing" textLength="91" x="27" y="92.752">sideC : double</text><rect fill="none" height="6" style="stroke:#C82930;stroke-width:1.0;" width="6" x="15" y="103.1328"/><text fill="#FFFFFF" font-family="sans-serif" font-size="14" lengthAdjust="spacing" textLength="84" x="27" y="110.3613">area : double</text><rect fill="none" height="6" style="stroke:#C82930;stroke-width:1.0;" width="6" x="15" y="120.7422"/><text fill="#FFFFFF" font-family="sans-serif" font-size="14" lengthAdjust="spacing" textLength="93" x="27" y="127.9707">semiP : double</text><line style="stroke:#1B1B1B;stroke-width:1.5;" x1="8" x2="125" y1="135.0469" y2="135.0469"/><ellipse cx="18" cy="149.3516" fill="#84BE84" rx="3" ry="3" style="stroke:#038048;stroke-width:1.0;"/><text fill="#FFFFFF" font-family="sans-serif" font-size="14" lengthAdjust="spacing" textLength="62" x="27" y="153.5801">Triangle()</text></g><!--MD5=[793668fe740f4b06a80dd095381d024c]
reverse link Shape to Rectangle--><g id="link_Shape_Rectangle"><path codeLine="35" d="M330.1,84 C334.97,84 339.84,84 344.71,84 " fill="none" id="Shape-backto-Rectangle" style="stroke:#181818;stroke-width:1.0;"/><polygon fill="none" points="330.08,91,310.08,84,330.08,77,330.08,91" style="stroke:#181818;stroke-width:1.0;"/></g><!--MD5=[39c4fc6d6bc558877bc9c4b701305289]
link Triangle to Shape--><g id="link_Triangle_Shape"><path codeLine="36" d="M126.24,84 C131.02,84 135.79,84 140.56,84 " fill="none" id="Triangle-to-Shape" style="stroke:#181818;stroke-width:1.0;"/><polygon fill="none" points="140.81,77,160.81,84,140.81,91,140.81,77" style="stroke:#181818;stroke-width:1.0;"/></g><!--MD5=[f6dadd5c60fa9309e67dcf11631535ba]
@startuml

skinparam BackgroundColor Grey
skinparam ClassBackgroundColor 2e2e2e 
skinparam ClassBorderThickness 1.5
skinparam ClassBorderColor 1b1b1b
skinparam CircledCharacterFontColor Red
skinparam ClassAttributeFontColor Grey
skinparam ClassFontColor white

abstract class Shape
{
    + CalcArea() : double
}

class Rectangle 
{
    +Length : double
    +Width : double
    -area : double

    +Rectangle()
}

class Triangle 
{
    +sideA : double
    +sideB : double
    +sideC : double
    -area : double
    -semiP : double

    +Triangle()
}

Shape <|-right- Rectangle
Shape <|-left- Triangle

@enduml 

PlantUML version 1.2022.7(Mon Aug 22 22:31:30 IST 2022)
(GPL source distribution)
Java Runtime: Java(TM) SE Runtime Environment
JVM: Java HotSpot(TM) 64-Bit Server VM
Default Encoding: Cp1252
Language: en
Country: US
--></g></svg>